<?xml version="1.0" encoding="UTF-8"?>
<svg width="223px" height="79px" viewBox="0 0 223 79" version="1.1" xmlns="http://www.w3.org/2000/svg" xmlns:xlink="http://www.w3.org/1999/xlink">
    <!-- Generator: Sketch 59.1 (86144) - https://sketch.com -->
    <title>logo</title>
    <desc>Created with Sketch.</desc>
    <defs>
        <polygon id="path-1" points="0.275991168 0.135639353 92.5940676 0.135639353 92.5940676 53.44375 0.275991168 53.44375"></polygon>
        <polygon id="path-3" points="0.921705405 0.720125 66.8046649 0.720125 66.8046649 66.25 0.921705405 66.25"></polygon>
        <polygon id="path-5" points="0.394990647 1.005 9.52056881 1.005 9.52056881 10.1335023 0.394990647 10.1335023"></polygon>
        <polygon id="path-7" points="0 45 123 45 123 0 0 0"></polygon>
    </defs>
    <g id="Page-1" stroke="none" stroke-width="1" fill="none" fill-rule="evenodd">
        <g id="Desktop-Night-Mode" transform="translate(-631.000000, -53.000000)">
            <g id="logo" transform="translate(631.000000, 52.000000)">
                <g id="Group-24">
                    <polygon id="Fill-1" fill="#EEECEC" points="48 24.9974819 45.0765365 25 45 9.00377715 47.9234635 9"></polygon>
                    <g id="Group-23">
                        <path d="M76.4568081,23.40625 C75.1837135,23.40625 73.8289297,23.465 72.3949703,23.585 C62.9994568,24.36875 51.4737405,27.6375 39.9429973,32.79125 C28.4122541,37.945 18.3016459,44.345 11.4736865,50.81125 C5.18236216,56.77 2.43509189,62.09125 3.9344027,65.41 C5.43245676,68.72875 11.2575243,70.2175 19.9153216,69.49625 C29.3095784,68.7125 40.8340378,65.44125 52.3660378,60.28875 C63.8967811,55.135 74.0073892,48.735 80.8353486,42.26875 C87.126673,36.31 89.8752,30.98875 88.3746324,27.67125 C87.1241595,24.90125 82.8612405,23.40625 76.4568081,23.40625 M15.9552811,73.1937505 C7.92460541,73.195 2.57333514,70.9975 0.702024324,66.855 C-1.48347568,62.01875 1.47367297,55.415 9.02929459,48.25875 C16.1400243,41.525 26.6025243,34.89 38.4914432,29.57625 C50.3778486,24.26375 62.3132676,20.8875 72.0983757,20.0725 C82.4892405,19.20625 89.4227676,21.39 91.6082676,26.22625 C96.4053081,36.84375 76.1614703,53.5175 53.8175919,63.50375 C41.9299297,68.81625 29.9957676,72.1925 20.2106595,73.00875 C18.7201459,73.1325 17.3000108,73.1937505 15.9552811,73.1937505" id="Fill-2" fill="#EEECEC"></path>
                        <g id="Group-6" transform="translate(0.000000, 19.750000)">
                            <mask id="mask-2" fill="white">
                                <use xlink:href="#path-1"></use>
                            </mask>
                            <g id="Clip-5"></g>
                            <path d="M16.1287135,3.65625 C9.72176757,3.65625 5.46136216,5.15125 4.21088919,7.92125 C2.71032162,11.23875 5.45884865,16.56 11.750173,22.51875 C18.5768757,28.985 28.6874838,35.385 40.2194838,40.53875 C51.750227,45.69125 63.2759432,48.9625 72.6702,49.74625 C81.3229703,50.4675 87.1518081,48.97875 88.6511189,45.66 C90.1504297,42.34125 87.4031595,37.02 81.1118351,31.06125 C74.2826189,24.595 64.1732676,18.195 52.6425243,13.04125 C41.1105243,7.8875 29.5848081,4.61875 20.1905514,3.835 C18.7578486,3.715 17.3992946,3.65625 16.1287135,3.65625 M76.6302405,53.44375 C75.2842541,53.44375 73.8653757,53.3825 72.3748622,53.25875 C62.5897541,52.4425 50.6543351,49.06625 38.7679297,43.75375 C26.8790108,38.44125 16.4165108,31.80625 9.30452432,25.07125 C1.75015946,17.915 -1.20698919,11.31125 0.977254054,6.47625 C3.16275405,1.64 10.0912541,-0.5475 20.4871459,0.3225 C30.2709973,1.1375 42.2064162,4.51375 54.0940784,9.82625 C76.4367,19.8125 96.6805378,36.48625 91.8834973,47.105 C90.0121865,51.24625 84.6596595,53.44375 76.6302405,53.44375" id="Fill-4" fill="#EEECEC" mask="url(#mask-2)"></path>
                        </g>
                        <path d="M90.1498014,59.456125 C88.3702338,60.572375 86.0502608,60.357375 84.5069635,58.934875 C82.6255986,57.199875 82.5124905,54.267375 84.2568689,52.396125 C84.5320986,52.098625 84.8462878,51.838625 85.1893824,51.623625 C86.9676932,50.508625 89.2864095,50.723625 90.8309635,52.146125 C92.7123284,53.881125 92.8241797,56.813625 91.0810581,58.684875 C90.8045716,58.982375 90.4903824,59.242375 90.1498014,59.456125" id="Fill-7" fill="#E2696C"></path>
                        <g id="Group-11" transform="translate(12.567568, 13.750000)">
                            <mask id="mask-4" fill="white">
                                <use xlink:href="#path-3"></use>
                            </mask>
                            <g id="Clip-10"></g>
                            <path d="M61.4358,0.720125 L6.28931351,0.720125 C3.33090811,0.720125 0.921705405,3.116375 0.921705405,6.060125 L0.921705405,60.910125 C0.921705405,63.853875 3.33090811,66.250125 6.28931351,66.250125 L61.4358,66.250125 C64.3954622,66.250125 66.8046649,63.853875 66.8046649,60.910125 L66.8046649,6.060125 C66.8046649,3.116375 64.3954622,0.720125 61.4358,0.720125" id="Fill-9" fill="#F7C46A" mask="url(#mask-4)"></path>
                        </g>
                        <path d="M88.6512446,65.4095 C87.1519338,68.7295 81.3230959,70.217 72.6703257,69.49575 C63.2760689,68.712 51.7503527,65.442 40.2196095,60.28825 C28.6876095,55.1345 18.5770014,48.73575 11.7502986,42.26825 C5.45897432,36.31075 2.7104473,30.9895 4.21101486,27.67075 L0.97737973,26.22575 C-1.20686351,31.06075 1.75028514,37.66575 9.30465,44.82075 C16.4166365,51.55575 26.8791365,58.19075 38.7680554,63.50325 C50.6544608,68.817 62.5898797,72.192 72.3749878,73.00825 C73.8655014,73.13325 75.2856365,73.1945 76.6303662,73.1945 C84.6597851,73.1945 90.0123122,70.997 91.883623,66.8545 L88.6512446,65.4095 Z" id="Fill-12" fill="#EEECEC"></path>
                        <path d="M36.3559622,30.1775 L24.4507054,30.1775 C22.6623405,30.1775 21.2045027,28.72875 21.2045027,26.94875 C21.2045027,25.1675 22.6623405,23.71875 24.4507054,23.71875 L36.3559622,23.71875 C38.1455838,23.71875 39.6021649,25.1675 39.6021649,26.94875 C39.6021649,28.72875 38.1455838,30.1775 36.3559622,30.1775" id="Fill-14" fill="#EEECEC"></path>
                        <path d="M34.0093459,62.703125 C31.4229405,64.324375 28.0523189,64.013125 25.8090081,61.945625 C23.0743054,59.424375 22.910927,55.161875 25.4445486,52.441875 C25.8467108,52.010625 26.3016568,51.633125 26.8005892,51.321875 C29.3832243,49.700625 32.7563595,50.011875 34.9996703,52.079375 C37.7331162,54.600625 37.8964946,58.863125 35.362873,61.583125 C34.9619676,62.014375 34.5057649,62.390625 34.0093459,62.703125" id="Fill-16" fill="#E2696C"></path>
                        <path d="M15.9556581,73.193875 C7.92372568,73.193875 2.57371216,70.997625 0.701144595,66.855125 L3.93477973,65.410125 C5.43283378,68.728875 11.2579014,70.220125 19.9144419,69.496375 C29.3099554,68.712625 40.8344149,65.441375 52.3664149,60.288875 C63.8959014,55.135125 74.0065095,48.736375 80.8357257,42.268875 C87.12705,36.310125 89.8743203,30.988875 88.3750095,27.671375 L91.6073878,26.226375 C96.4056851,36.843875 76.1605905,53.517625 53.8179689,63.503875 C41.9303068,68.816375 29.9961446,72.192625 20.2110365,73.008875 C18.7192662,73.132625 17.2991311,73.193875 15.9556581,73.193875" id="Fill-18" fill="#EEECEC"></path>
                        <g id="Group-22" transform="translate(41.472973, 0.000000)">
                            <mask id="mask-6" fill="white">
                                <use xlink:href="#path-5"></use>
                            </mask>
                            <g id="Clip-21"></g>
                            <path d="M6.82092162,9.74725 C6.24407027,10.00225 5.62825946,10.13225 4.99108378,10.1335023 C2.4738,10.136 0.411462162,8.091 0.395124324,5.57475 C0.3813,3.7635 1.44074595,2.121 3.09338108,1.391 C3.67023243,1.13475 4.28604324,1.00474753 4.92321892,1.00474753 C6.14352973,1.0035 7.29220541,1.47725 8.16062432,2.33725 C9.02904324,3.1985 9.51289459,4.34475 9.52043514,5.5635 C9.53425946,7.37475 8.47481351,9.01725 6.82092162,9.74725" id="Fill-20" fill="#E2696C" mask="url(#mask-6)"></path>
                        </g>
                    </g>
                </g>
                <g id="Group-19" transform="translate(100.000000, 24.000000)">
                    <path d="M9.98081098,9.22490133 C10.5375532,8.72472192 10.8159243,8.0574094 10.8159243,7.22418371 C10.8159243,6.45805526 10.5375532,5.84564047 9.98081098,5.38693936 C9.42406877,4.9294582 8.68134063,4.70010764 7.75141096,4.70010764 L5.2096032,4.70010764 L5.2096032,9.97517043 L7.75141096,9.97517043 C8.68134063,9.97517043 9.42406877,9.72508073 9.98081098,9.22490133 M13.0696362,2.67499103 C14.3569506,3.79124507 15,5.30886258 15,7.22418371 C15,9.20782203 14.3277763,10.7791173 12.983329,11.9380696 C11.6364505,13.0958019 9.81062777,13.6740581 7.50221412,13.6740581 L5.2096032,13.6740581 L5.2096032,18 L1,18 L1,1 L7.82677781,1 C10.0342971,1 11.7823218,1.55873699 13.0696362,2.67499103" id="Fill-1" fill="#EEECEC"></path>
                    <polygon id="Fill-3" fill="#EEECEC" points="21.274091 4.67570865 21.274091 7.775601 28.9126555 7.775601 28.9126555 11.3756728 21.274091 11.3756728 21.274091 14.3255113 30 14.3255113 30 18 17 18 17 1 30 1 30 4.67570865"></polygon>
                    <path d="M37.3331509,9.27491927 L40.5389067,9.27491927 C41.3935247,9.27491927 42.1042465,9.06264801 42.6673184,8.63810549 C43.2316415,8.21234302 43.5131774,7.65848583 43.5131774,6.97531396 C43.5131774,6.30800144 43.2316415,5.76634374 42.6673184,5.35034087 C42.1042465,4.93311805 41.3935247,4.72572659 40.5389067,4.72572659 L37.3331509,4.72572659 L37.3331509,9.27491927 Z M43.9486197,18 L40.6415109,13.0750628 L40.6152342,13.0750628 L37.3331509,13.0750628 L37.3331509,18 L33,18 L33,1 L40.6152342,1 C42.8037069,1 44.555486,1.53799785 45.8718229,2.61277359 C47.1881598,3.68754934 47.8463283,5.14172946 47.8463283,6.97531396 C47.8463283,8.0744887 47.5898178,9.06264801 47.0767967,9.93735199 C46.565027,10.812056 45.8380386,11.515967 44.8983342,12.049085 L49,18 L43.9486197,18 Z" id="Fill-5" fill="#EEECEC"></path>
                    <mask id="mask-8" fill="white">
                        <use xlink:href="#path-7"></use>
                    </mask>
                    <g id="Clip-8"></g>
                    <polygon id="Fill-7" fill="#EEECEC" mask="url(#mask-8)" points="51 18 55 18 55 1 51 1"></polygon>
                    <path d="M70.0637072,12.5183854 C71.0127414,11.5504562 71.4879024,10.3772463 71.4879024,9 C71.4879024,7.62275366 71.0127414,6.45078795 70.0637072,5.4816146 C69.1133853,4.51244125 67.9261267,4.02847664 66.5006438,4.02847664 C65.0764487,4.02847664 63.8879024,4.51244125 62.9388682,5.4816146 C61.9885463,6.45078795 61.5133853,7.62275366 61.5133853,9 C61.5133853,10.3772463 61.9885463,11.5504562 62.9388682,12.5183854 C63.8879024,13.4875588 65.0764487,13.9715234 66.5006438,13.9715234 C67.9261267,13.9715234 69.1133853,13.4875588 70.0637072,12.5183854 M73.2687902,2.60022118 C75.0895967,4.33453138 76,6.4682057 76,9 C76,11.5330384 75.0895967,13.6654686 73.2687902,15.3997788 C71.4479837,17.1328449 69.1919349,18 66.5006438,18 C63.8093528,18 61.553304,17.1328449 59.7324975,15.3997788 C57.9104033,13.6654686 57,11.5330384 57,9 C57,6.4682057 57.9104033,4.33453138 59.7324975,2.60022118 C61.553304,0.867155101 63.8093528,0 66.5006438,0 C69.1919349,0 71.4479837,0.867155101 73.2687902,2.60022118" id="Fill-9" fill="#EEECEC" mask="url(#mask-8)"></path>
                    <path d="M89.3124666,12.8371726 C90.254289,11.92953 90.7252002,10.7998565 90.7252002,9.45059203 C90.7252002,8.13304629 90.254289,7.02899175 89.3124666,6.13720847 C88.3718643,5.24542519 87.2080061,4.80014352 85.825772,4.80014352 L83.2247808,4.80014352 L83.2247808,14.1998565 L85.825772,14.1998565 C87.2080061,14.1998565 88.3718643,13.7460352 89.3124666,12.8371726 M92.4258483,3.36182275 C94.1423561,4.9367779 95,6.96677431 95,9.45059203 C95,11.9673484 94.1423561,14.0205239 92.4258483,15.6125583 C90.7093404,17.2045928 88.5085017,18 85.825772,18 L79,18 L79,1 L85.825772,1 C88.5085017,1 90.7093404,1.7868676 92.4258483,3.36182275" id="Fill-10" fill="#EEECEC" mask="url(#mask-8)"></path>
                    <polygon id="Fill-11" fill="#EEECEC" mask="url(#mask-8)" points="98 18 102 18 102 1 98 1"></polygon>
                    <path d="M118.532892,10.4780205 L123,10.4780205 C122.710546,12.7385955 121.768256,14.5575062 120.175635,15.9347526 C118.584267,17.3107548 116.606961,18 114.24497,18 C111.607309,18 109.408214,17.1502626 107.645179,15.4507879 C105.882144,13.7500691 105,11.6002212 105,9 C105,6.39977882 105.882144,4.24868676 107.645179,2.54921205 C109.408214,0.849737351 111.607309,0 114.24497,0 C116.606961,0 118.584267,0.688001106 120.175635,2.06524744 C121.768256,3.44124965 122.710546,5.26016035 123,7.52073542 L118.532892,7.52073542 C118.292308,6.4333702 117.801114,5.57865635 117.055552,4.95908211 C116.311243,4.33826375 115.365193,4.02847664 114.218656,4.02847664 C112.798956,4.02847664 111.638636,4.4950235 110.738949,5.43060547 C109.840515,6.36494332 109.391925,7.55432679 109.391925,9 C109.391925,10.4444291 109.840515,11.6338126 110.738949,12.5693945 C111.638636,13.5037324 112.798956,13.9715234 114.218656,13.9715234 C115.365193,13.9715234 116.311243,13.6617362 117.055552,13.0409179 C117.801114,12.4200995 118.292308,11.5653857 118.532892,10.4780205 Z" id="Fill-12" fill="#EEECEC" mask="url(#mask-8)"></path>
                    <polygon id="Fill-13" fill="#EEECEC" mask="url(#mask-8)" points="15 31.7757445 9.5938716 31.7757445 9.5938716 45 5.4061284 45 5.4061284 31.7757445 0 31.7757445 0 28 15 28"></polygon>
                    <path d="M25.7758848,38.5501256 L23.4874538,32.8249013 L21.1990227,38.5501256 L25.7758848,38.5501256 Z M27.1898442,42.0757804 L19.7850634,42.0757804 L18.6283016,45 L14,45 L21.4298732,28 L25.5952192,28 L33,45 L28.3716984,45 L27.1898442,42.0757804 Z" id="Fill-14" fill="#EEECEC" mask="url(#mask-8)"></path>
                    <path d="M44.1232512,41.0122704 C44.5592105,40.6865672 44.7753165,40.2583955 44.7753165,39.7253157 C44.7753165,39.1910161 44.5592105,38.7835821 44.1232512,38.4993542 C43.688541,38.2163462 43.0702032,38.0748421 42.2682378,38.0748421 L38.3246169,38.0748421 L38.3246169,41.4989954 L42.1907895,41.4989954 C43.0452199,41.4989954 43.688541,41.3379736 44.1232512,41.0122704 L44.1232512,41.0122704 Z M38.3246169,31.4509902 L38.3246169,35.0007893 L41.5761992,35.0007893 C42.3794137,35.0007893 43.0027482,34.8251292 43.4449534,34.4750287 C43.8896569,34.1249282 44.1107595,33.6674799 44.1107595,33.100244 C44.1107595,31.9999282 43.2650733,31.4509902 41.5761992,31.4509902 L38.3246169,31.4509902 Z M48.1805463,37.7003444 C48.7276815,38.4493398 49,39.3081228 49,40.2754736 C49,41.7075918 48.4416223,42.8542623 47.3236176,43.7118255 C46.2056129,44.5706085 44.6828781,45 42.7541639,45 L34,45 L34,28 L42.2420053,28 C44.1195037,28 45.5872751,28.4049943 46.6453198,29.2137629 C47.7033644,30.0213117 48.2317622,31.125287 48.2317622,32.5256889 C48.2317622,33.3417767 48.0144071,34.1041906 47.5796969,34.8129305 C47.1449867,35.5216705 46.5591272,35.9998565 45.8258661,36.2499282 C46.8501832,36.4670637 47.6359094,36.9501292 48.1805463,37.7003444 L48.1805463,37.7003444 Z" id="Fill-15" fill="#EEECEC" mask="url(#mask-8)"></path>
                    <polygon id="Fill-16" fill="#EEECEC" mask="url(#mask-8)" points="65 41.2254754 65 45 52 45 52 28 56.3500821 28 56.3500821 41.2254754"></polygon>
                    <polygon id="Fill-17" fill="#EEECEC" mask="url(#mask-8)" points="71.274091 31.6757086 71.274091 34.775601 78.9126555 34.775601 78.9126555 38.3756728 71.274091 38.3756728 71.274091 41.3255113 80 41.3255113 80 45 67 45 67 28 80 28 80 31.6757086"></polygon>
                    <path d="M67.5211069,10.7884607 C67.2052306,10.9282041 66.8674364,11 66.5193278,11 C65.1384972,11.001281 64.0090783,9.88076943 64.0000533,8.50256591 C63.9936068,7.51025937 64.5724985,6.61154246 65.47887,6.21154293 C65.7947463,6.0717995 66.1325405,6 66.4806491,6 C67.1497911,5.99872266 67.7789651,6.25897877 68.2547134,6.72949105 C68.7304618,7.20128537 68.9960557,7.82948977 68.9999236,8.49615566 C69.0076593,9.4884622 68.4274784,10.3884612 67.5211069,10.7884607" id="Fill-18" fill="#E2696C" mask="url(#mask-8)"></path>
                </g>
            </g>
        </g>
    </g>
</svg>